<svg width="131" height="25" viewBox="0 0 131 25" fill="none" xmlns="http://www.w3.org/2000/svg">
<path d="M0.160156 1.74002H4.84016V24H0.160156V1.74002Z" fill="white"/>
<path d="M9.18359 7.86001H13.8636V24H9.18359V7.86001ZM11.5236 5.61002C10.6636 5.61002 9.96359 5.36002 9.42359 4.86002C8.88359 4.36002 8.61359 3.74002 8.61359 3.00002C8.61359 2.26002 8.88359 1.64002 9.42359 1.14002C9.96359 0.640015 10.6636 0.390015 11.5236 0.390015C12.3836 0.390015 13.0836 0.630015 13.6236 1.11002C14.1636 1.59002 14.4336 2.19002 14.4336 2.91002C14.4336 3.69002 14.1636 4.34002 13.6236 4.86002C13.0836 5.36002 12.3836 5.61002 11.5236 5.61002Z" fill="white"/>
<path d="M23.337 8.22002H27.477V11.82H23.457V24H18.777V11.82H16.287V8.22002H18.777V7.50002C18.777 5.66002 19.317 4.20002 20.397 3.12002C21.497 2.04001 23.037 1.50001 25.017 1.50001C25.717 1.50001 26.377 1.58001 26.997 1.74002C27.637 1.88002 28.167 2.09002 28.587 2.37002L27.357 5.76002C26.817 5.38002 26.187 5.19002 25.467 5.19002C24.047 5.19002 23.337 5.97002 23.337 7.53002V8.22002Z" fill="white"/>
<path d="M45.4135 15.99C45.4135 16.05 45.3835 16.47 45.3235 17.25H33.1135C33.3335 18.25 33.8535 19.04 34.6735 19.62C35.4935 20.2 36.5135 20.49 37.7335 20.49C38.5735 20.49 39.3135 20.37 39.9535 20.13C40.6135 19.87 41.2235 19.47 41.7835 18.93L44.2735 21.63C42.7535 23.37 40.5335 24.24 37.6135 24.24C35.7935 24.24 34.1835 23.89 32.7835 23.19C31.3835 22.47 30.3035 21.48 29.5435 20.22C28.7835 18.96 28.4035 17.53 28.4035 15.93C28.4035 14.35 28.7735 12.93 29.5135 11.67C30.2735 10.39 31.3035 9.40002 32.6035 8.70002C33.9235 7.98002 35.3935 7.62002 37.0135 7.62002C38.5935 7.62002 40.0235 7.96002 41.3035 8.64002C42.5835 9.32002 43.5835 10.3 44.3035 11.58C45.0435 12.84 45.4135 14.31 45.4135 15.99ZM37.0435 11.16C35.9835 11.16 35.0935 11.46 34.3735 12.06C33.6535 12.66 33.2135 13.48 33.0535 14.52H41.0035C40.8435 13.5 40.4035 12.69 39.6835 12.09C38.9635 11.47 38.0835 11.16 37.0435 11.16Z" fill="white"/>
<path d="M57.8302 8.21999C59.7902 8.21999 61.3402 8.78999 62.4802 9.92999C63.6202 11.07 64.1902 12.71 64.1902 14.85V24H62.6902V14.97C62.6902 13.21 62.2402 11.87 61.3402 10.95C60.4602 10.03 59.2202 9.56999 57.6202 9.56999C55.7802 9.56999 54.3302 10.12 53.2702 11.22C52.2102 12.32 51.6802 13.8 51.6802 15.66V24H50.1802V1.73999H51.6802V11.61C52.2202 10.53 53.0202 9.69999 54.0802 9.11999C55.1402 8.51999 56.3902 8.21999 57.8302 8.21999Z" fill="#1F1E1C"/>
<path d="M75.6457 8.21999C77.5857 8.21999 79.0757 8.71999 80.1157 9.71999C81.1557 10.7 81.6757 12.15 81.6757 14.07V24H80.2357V21.21C79.7357 22.13 79.0057 22.85 78.0457 23.37C77.0857 23.87 75.9357 24.12 74.5957 24.12C72.8557 24.12 71.4757 23.71 70.4557 22.89C69.4557 22.07 68.9557 20.99 68.9557 19.65C68.9557 18.35 69.4157 17.3 70.3357 16.5C71.2757 15.68 72.7657 15.27 74.8057 15.27H80.1757V14.01C80.1757 12.55 79.7757 11.44 78.9757 10.68C78.1957 9.91999 77.0457 9.53999 75.5257 9.53999C74.4857 9.53999 73.4857 9.71999 72.5257 10.08C71.5857 10.44 70.7857 10.92 70.1257 11.52L69.3757 10.44C70.1557 9.73999 71.0957 9.19999 72.1957 8.81999C73.2957 8.41999 74.4457 8.21999 75.6457 8.21999ZM74.8057 22.89C76.1057 22.89 77.2057 22.59 78.1057 21.99C79.0257 21.39 79.7157 20.52 80.1757 19.38V16.44H74.8357C73.2957 16.44 72.1757 16.72 71.4757 17.28C70.7957 17.84 70.4557 18.61 70.4557 19.59C70.4557 20.61 70.8357 21.42 71.5957 22.02C72.3557 22.6 73.4257 22.89 74.8057 22.89Z" fill="#1F1E1C"/>
<path d="M93.436 15.63L89.356 19.35V24H87.856V1.73999H89.356V17.49L99.376 8.33999H101.296L94.546 14.67L101.956 24H100.096L93.436 15.63Z" fill="#1F1E1C"/>
<path d="M118.078 16.53H104.608C104.648 17.75 104.958 18.84 105.538 19.8C106.118 20.74 106.898 21.47 107.878 21.99C108.878 22.51 109.998 22.77 111.238 22.77C112.258 22.77 113.198 22.59 114.058 22.23C114.938 21.85 115.668 21.3 116.248 20.58L117.118 21.57C116.438 22.39 115.578 23.02 114.538 23.46C113.518 23.9 112.408 24.12 111.208 24.12C109.648 24.12 108.258 23.78 107.038 23.1C105.818 22.42 104.858 21.48 104.158 20.28C103.478 19.08 103.138 17.71 103.138 16.17C103.138 14.65 103.458 13.29 104.098 12.09C104.758 10.87 105.658 9.91999 106.798 9.23999C107.938 8.55999 109.218 8.21999 110.638 8.21999C112.058 8.21999 113.328 8.55999 114.448 9.23999C115.588 9.89999 116.478 10.83 117.118 12.03C117.778 13.23 118.108 14.59 118.108 16.11L118.078 16.53ZM110.638 9.53999C109.538 9.53999 108.548 9.78999 107.668 10.29C106.788 10.77 106.078 11.46 105.538 12.36C105.018 13.24 104.718 14.24 104.638 15.36H116.638C116.578 14.24 116.278 13.24 115.738 12.36C115.198 11.48 114.488 10.79 113.608 10.29C112.728 9.78999 111.738 9.53999 110.638 9.53999Z" fill="#1F1E1C"/>
<path d="M124.189 11.76C124.669 10.62 125.419 9.74999 126.439 9.14999C127.459 8.52999 128.699 8.21999 130.159 8.21999V9.68999L129.799 9.65999C128.059 9.65999 126.699 10.21 125.719 11.31C124.739 12.39 124.249 13.9 124.249 15.84V24H122.749V8.33999H124.189V11.76Z" fill="#1F1E1C"/>
</svg>
